# xmcd
#
# Track frame offsets: 
#        150
#        13853
#        37005
#        49902
#        65993
#        112175
#        124535
#        137618
#        162672
#        182358
#        206828
#        219730
#        242900
#        252238
#        281233
#        305390
#
# Disc length: 4358 seconds
#
# Revision: 7
# Processed by: cddbd v1.5.2PL0 Copyright (c) Steve Scherf et al.
# Submitted via: ExactAudioCopy v0.99pb5
#
DISCID=01110410
DTITLE=John Lee Hooker - The Best Of John Lee Hooker 1965 to 1974
DYEAR=1992
DGENRE=Blues
TTITLE0=One Bourbon, One Scotch, One Beer
TTITLE1=Decoration Day
TTITLE2=Back Biters and Syndicators
TTITLE3=Doin' the Shout
TTITLE4=Never Get Out of These Blues Alive (wth Van Morrison)
TTITLE5=I'm in the Mood
TTITLE6=Mr. Lucky
TTITLE7=I'm Bad Like Jesse James (live)
TTITLE8=Shake It Baby
TTITLE9=Bluebird
TTITLE10=The Motor City is Burning
TTITLE11=It Serves You Right to Suffer
TTITLE12=Think Twice Before You Go
TTITLE13=House Rent Boogie
TTITLE14=The Waterfront
TTITLE15=Bang, Bang, Bang, Bang
EXTD=YEAR: 1992
EXTT0=
EXTT1=
EXTT2=
EXTT3=
EXTT4=
EXTT5=
EXTT6=
EXTT7=
EXTT8=
EXTT9=
EXTT10=
EXTT11=
EXTT12=
EXTT13=
EXTT14=
EXTT15=
PLAYORDER=
